# xmcd CD database file
#
# Track frame offsets:
#	150
#	26776
#	59119
#	86008
#	119876
#	145111
#	170088
#	189989
#	218292
#
# Disc length: 3384 seconds
#
# Revision: 0
# Processed by: cddbd v1.5.2PL0 Copyright (c) Steve Scherf et al.
# Submitted via: cdripper 1,0,39,0213
#
DISCID=860d3609
DTITLE=Robert MacGregor - refraction of light
DYEAR=2006
DGENRE=Jazz
TTITLE0=The Fuse
TTITLE1=Crimson Corridor
TTITLE2=Local Transfer
TTITLE3=Zizhuyuang in the Summer
TTITLE4=Event's Horizon
TTITLE5=Refraction of Light
TTITLE6=Path Less Traveled
TTITLE7=R.S.V.P.
TTITLE8=Senbo's Dreamwalk
EXTD=YEAR: 2006
EXTT0=
EXTT1=
EXTT2=
EXTT3=
EXTT4=
EXTT5=
EXTT6=
EXTT7=
EXTT8=
PLAYORDER=
